# xmcd
#
# Track frame offsets:
#	150
#	24306
#	44411
#	63853
#	77202
#	93312
#	113742
#	135140
#	157572
#	182312
#	200216
#	219743
#	238147
#	254733
#	276530
#	294223
#	309775
#	324655
#	338669
#
# Disc length: 4744 seconds
#
# Revision: 0
# Processed by: cddbd v1.5.2PL0 Copyright (c) Steve Scherf et al.
# Submitted via: dBpowerAMP V4.0
#
DISCID=06128613
DTITLE=kkk - Papas da Lingua
DYEAR=2007
DGENRE=Cult
TTITLE0=01eu sei
TTITLE1=a 02
TTITLE2=b03
TTITLE3=c04
TTITLE4=d05
TTITLE5=e06
TTITLE6=f07
TTITLE7=g08
TTITLE8=h09
TTITLE9=i10
TTITLE10=j11
TTITLE11=k12
TTITLE12=l13
TTITLE13=m14
TTITLE14=n15
TTITLE15=o16
TTITLE16=p17
TTITLE17=q18
TTITLE18=r19
EXTD=kkkkk
EXTT0=
EXTT1=
EXTT2=
EXTT3=
EXTT4=
EXTT5=
EXTT6=
EXTT7=
EXTT8=
EXTT9=
EXTT10=
EXTT11=
EXTT12=
EXTT13=
EXTT14=
EXTT15=
EXTT16=
EXTT17=
EXTT18=
PLAYORDER=
